HIERARCHY
ROOT RootJoint
{
    OFFSET   0.000000   0.000000   0.000000
    CHANNELS 6 Xposition Yposition Zposition Xrotation Yrotation Zrotation
    JOINT pelvis_lowerback
    {
        OFFSET   0.000000   0.093605   0.000000
        CHANNELS 3 Xrotation Yrotation Zrotation
        JOINT lowerback_torso
        {
            OFFSET   0.000000   0.100000   0.000000
            CHANNELS 3 Xrotation Yrotation Zrotation
            JOINT torso_head
            {
                OFFSET   0.000000   0.282350   0.000000
                CHANNELS 3 Xrotation Yrotation Zrotation
                End Site
                {
                    OFFSET   0.000000   0.192650   0.000000
                }
            }
            JOINT rTorso_Clavicle
            {
                OFFSET  -0.001000   0.157500   0.000000
                CHANNELS 3 Xrotation Yrotation Zrotation
                JOINT rShoulder
                {
                    OFFSET  -0.117647   0.000000   0.000000
                    CHANNELS 3 Xrotation Yrotation Zrotation
                    JOINT rElbow
                    {
                        OFFSET  -0.245000   0.000000   0.000000
                        CHANNELS 3 Xrotation Yrotation Zrotation
                        JOINT rWrist
                        {
                            OFFSET  -0.240000   0.000000   0.000000
                            CHANNELS 3 Xrotation Yrotation Zrotation
                            End Site
                            {
                                OFFSET  -0.116353  -0.002500   0.000000
                            }
                        }
                    }
                }
            }
            JOINT lTorso_Clavicle
            {
                OFFSET   0.001000   0.157500   0.000000
                CHANNELS 3 Xrotation Yrotation Zrotation
                JOINT lShoulder
                {
                    OFFSET   0.117647   0.000000   0.000000
                    CHANNELS 3 Xrotation Yrotation Zrotation
                    JOINT lElbow
                    {
                        OFFSET   0.245000   0.000000   0.000000
                        CHANNELS 3 Xrotation Yrotation Zrotation
                        JOINT lWrist
                        {
                            OFFSET   0.240000   0.000000   0.000000
                            CHANNELS 3 Xrotation Yrotation Zrotation
                            End Site
                            {
                                OFFSET   0.116353  -0.002500   0.000000
                            }
                        }
                    }
                }
            }
        }
    }
    JOINT rHip
    {
        OFFSET  -0.100000  -0.051395   0.000000
        CHANNELS 3 Xrotation Yrotation Zrotation
        JOINT rKnee
        {
            OFFSET   0.000000  -0.410000   0.000000
            CHANNELS 3 Xrotation Yrotation Zrotation
            JOINT rAnkle
            {
                OFFSET   0.000000  -0.390000   0.000000
                CHANNELS 3 Xrotation Yrotation Zrotation
                JOINT rToeJoint
                {
                    OFFSET   0.000000  -0.050000   0.130000
                    CHANNELS 3 Xrotation Yrotation Zrotation
                    End Site
                    {
                        OFFSET  -0.010000   0.002000   0.060000
                    }
                }
            }
        }
    }
    JOINT lHip
    {
        OFFSET   0.100000  -0.051395   0.000000
        CHANNELS 3 Xrotation Yrotation Zrotation
        JOINT lKnee
        {
            OFFSET   0.000000  -0.410000   0.000000
            CHANNELS 3 Xrotation Yrotation Zrotation
            JOINT lAnkle
            {
                OFFSET   0.000000  -0.390000   0.000000
                CHANNELS 3 Xrotation Yrotation Zrotation
                JOINT lToeJoint
                {
                    OFFSET   0.000000  -0.050000   0.130000
                    CHANNELS 3 Xrotation Yrotation Zrotation
                    End Site
                    {
                        OFFSET   0.010000   0.002000   0.060000
                    }
                }
            }
        }
    }
}
MOTION
Frames: 11
Frame Time:   0.008333
 -2.376719   0.925631   3.975860   0.000000   0.000000   0.000000   0.000000   0.000000   0.000000   0.000000   0.000000   0.000000   0.000000   0.000000   0.000000   0.000000   0.000000   0.000000   0.000000   0.000000   0.000000   0.000000   0.000000   0.000000   0.000000   0.000000   0.000000   0.000000   0.000000   0.000000   0.000000   0.000000   0.000000   0.000000   0.000000   0.000000   0.000000   0.000000   0.000000   0.000000   0.000000   0.000000   0.000000   0.000000   0.000000   0.000000   0.000000   0.000000   0.000000   0.000000   0.000000   0.000000   0.000000   0.000000   0.000000   0.000000   0.000000   0.000000   0.000000   0.000000   0.000000   0.000000   0.000000
 -2.375730   0.923989   3.973858  -0.612896  -0.168297   0.648934   1.196506   0.393230  -0.481343  -0.196248  -0.320037  -0.381882  -0.046560   0.141243  -0.079099  -0.469523  -0.146579  -0.203636  -0.750224   0.293595   0.135179  -0.009205   3.424590   0.025223  -0.038965  -2.171875   0.469449  -0.850548   0.187652   1.041660  -0.942530  -0.094113   0.487530  -0.024089  -2.051748  -0.025630  -0.072084   1.148729  -1.702775  -0.286162  -0.325999  -1.139513   3.052997   0.012627  -0.013697  -3.275009  -0.834709   0.637195   0.167965  -0.000213  -0.001928  -0.806013   0.894877  -0.699252   3.334122   0.002399   0.020791  -1.752974   0.710607   0.055133  -0.266618   0.000020  -0.003323
 -2.374711   0.924569   3.971373  -1.613688  -0.734007   0.872192   2.621301   0.961797  -0.633333  -0.124020  -0.474534  -0.566785  -0.035070   0.276789  -0.212865  -0.912276   0.059942  -0.347507  -1.455237   0.880657   0.248520  -0.014556   7.036394   0.041203  -0.101103  -3.214993   0.815385  -1.655369   0.163979   2.264939  -1.822324  -0.354827   1.179354  -0.053465  -4.073486  -0.042317  -0.186377   1.619787  -3.057869  -0.821558  -0.827512  -1.628473   6.028969   0.013580  -0.040377  -6.019486  -1.809415   1.458183   0.405330  -0.001394  -0.005761  -1.468220   1.793606  -0.873267   6.846338   0.003782   0.026224  -3.362287   1.394612   0.140072  -0.447303   0.000175  -0.004238
 -2.372824   0.924834   3.968998  -2.776818  -1.277482   1.365007   4.036585   1.490223  -0.986886   0.064293  -0.590183  -0.746050  -0.003632   0.399741  -0.359153  -1.316961   0.472128  -0.618448  -2.110340   1.602314   0.301105  -0.024012  10.722335   0.054115  -0.160579  -3.686780   1.179825  -2.391866  -0.046491   3.776737  -2.631401  -0.738689   2.050293  -0.086214  -6.011856  -0.053990  -0.305508   1.717933  -4.085729  -1.246678  -1.259801  -2.559886   9.214434   0.015947  -0.062546  -8.830824  -2.684743   2.048938   0.512211  -0.001358  -0.006329  -2.115792   2.627772  -1.324042  10.178111   0.006317   0.028187  -4.863817   2.026244   0.239259  -0.622634   0.000250  -0.004756
 -2.370092   0.924092   3.966969  -3.963773  -1.615563   1.948138   5.343765   1.938210  -1.306356   0.262070  -0.725812  -0.880415   0.026148   0.511228  -0.511110  -1.692711   0.989487  -1.029334  -2.723132   2.386321   0.254943  -0.035581  14.277045   0.066353  -0.215195  -3.792496   1.419842  -3.059478  -0.406649   5.444413  -3.375635  -1.220876   3.033294  -0.118661  -7.862474  -0.062712  -0.433934   1.560352  -4.776332  -1.408833  -1.564913  -3.954454  12.587332   0.027230  -0.075236 -11.491145  -3.452129   2.420049   0.575121  -0.000915  -0.005850  -2.865666   3.409923  -1.833318  13.266133   0.009040   0.032623  -6.270502   2.609655   0.346646  -0.809722   0.000304  -0.005404
 -2.366839   0.922439   3.965283  -5.130537  -1.844349   2.463409   6.543658   2.374316  -1.498937   0.434495  -0.842768  -0.904352   0.043391   0.615471  -0.650440  -2.045605   1.574312  -1.508099  -3.298942   3.199901   0.147642  -0.045312  17.626912   0.077738  -0.265653  -3.676838   1.511422  -3.660351  -0.856279   7.172421  -4.059854  -1.759184   4.070870  -0.147412  -9.617646  -0.068625  -0.571161   1.236486  -5.173626  -1.377373  -1.838799  -5.547955  16.040003   0.042938  -0.085605 -13.965267  -4.187867   2.729075   0.654155  -0.000279  -0.005578  -3.725520   4.150153  -2.211617  16.096114   0.011017   0.036608  -7.587736   3.152240   0.461884  -0.991664   0.000366  -0.005906
 -2.363212   0.919934   3.963938  -6.265887  -2.013097   2.890183   7.645600   2.819744  -1.575680   0.579614  -0.921737  -0.814076   0.049067   0.713661  -0.773439  -2.376211   2.198029  -2.002546  -3.839627   4.019710   0.018349  -0.051884  20.775018   0.088036  -0.313363  -3.433196   1.512025  -4.199023  -1.347898   8.915578  -4.688361  -2.319645   5.128738  -0.170772 -11.272208  -0.071808  -0.711594   0.820859  -5.347308  -1.195467  -2.096076  -7.259057  19.547150   0.060338  -0.096341 -16.268850  -4.889981   2.985888   0.739983   0.000478  -0.005392  -4.681198   4.844806  -2.445475  18.682063   0.012331   0.039039  -8.820944   3.657022   0.583341  -1.162997   0.000416  -0.006179
 -2.359888   0.916768   3.962642  -6.773034  -2.130238   3.257727   8.061482   3.017298  -1.722604   0.517834  -0.926067  -0.562509  -0.002058   0.812870  -0.879305  -2.543722   2.751257  -2.400237  -3.974186   5.032807   0.031851  -0.049820  24.177802   0.089469  -0.400932  -3.208245   1.415714  -4.553570  -1.704238  10.543777  -5.124960  -2.792991   5.931883  -0.175017 -12.603458  -0.069503  -0.901419   0.209746  -4.936637  -1.681400  -2.590436  -9.000180  23.070992   0.072321  -0.115912 -17.847655  -5.575830   3.174216   1.041988   0.003394  -0.008410  -6.369014   5.826712  -2.373042  21.172588   0.012244   0.048035  -9.999798   4.550960   0.643618  -1.087213   0.000227  -0.003825
 -2.356751   0.912962   3.961734  -7.232904  -2.257959   3.577770   8.405904   3.205953  -1.852194   0.387130  -0.899561  -0.296197  -0.082944   0.900224  -0.973804  -2.682111   3.318453  -2.684428  -4.091182   6.026339   0.117031  -0.045500  27.386849   0.092196  -0.487966  -2.774273   1.464173  -4.873015  -2.036863  12.010245  -5.525467  -3.224842   6.637303  -0.172991 -13.834428  -0.066820  -1.069485  -0.313436  -4.539470  -2.085151  -3.051904 -10.772318  26.392428   0.079695  -0.132080 -19.312194  -6.223850   3.330749   1.369034   0.006219  -0.011213  -8.065951   6.749273  -2.105881  23.443668   0.010491   0.053321 -11.103780   5.394098   0.721914  -1.017147   0.000034  -0.002082
 -2.353777   0.908489   3.961175  -7.677574  -2.396993   3.862684   8.704375   3.410308  -1.961215   0.240332  -0.843758  -0.031088  -0.171557   0.980915  -1.062196  -2.799076   3.876190  -2.888100  -4.196738   6.973078   0.245490  -0.040967  30.391676   0.094762  -0.579459  -2.284375   1.615427  -5.162593  -2.347350  13.339487  -5.894383  -3.625757   7.264939  -0.167063 -14.980814  -0.063524  -1.226035  -0.789476  -4.207938  -2.391931  -3.471215 -12.563881  29.519212   0.083304  -0.144449 -20.679304  -6.833095   3.459290   1.667813   0.008329  -0.013062  -9.742358   7.587744  -1.693028  25.532340   0.007876   0.055643 -12.137783   6.181295   0.812958  -0.955181  -0.000133  -0.000862
 -2.350963   0.903333   3.960908  -8.111008  -2.540469   4.119084   8.969154   3.628443  -2.052626   0.091103  -0.764164   0.228480  -0.260693   1.056375  -1.144702  -2.898033   4.411946  -3.035326  -4.292693   7.866212   0.399260  -0.037177  33.200935   0.096548  -0.673007  -1.788810   1.832151  -5.427417  -2.630840  14.551388  -6.235015  -3.994406   7.828656  -0.158641 -16.048022  -0.059660  -1.372701  -1.228161  -3.934008  -2.616787  -3.852637 -14.356424  32.461068   0.083839  -0.153066 -21.956159  -7.404917   3.563521   1.939267   0.009789  -0.014136 -11.394198   8.343427  -1.167866  27.457460   0.004996   0.056004 -13.106318   6.915404   0.913383  -0.899817  -0.000266  -0.000020
